<mxfile host="app.diagrams.net" modified="2021-10-22T09:29:23.075Z" agent="5.0 (Windows NT 10.0; Win64; x64) AppleWebKit/537.36 (KHTML, like Gecko) Chrome/94.0.4606.81 Safari/537.36" etag="DdVpHxUyIuGyRZUsUJxj" version="15.5.8" type="github">
  <diagram name="Page-1" id="97916047-d0de-89f5-080d-49f4d83e522f">
    <mxGraphModel dx="1502" dy="685" grid="1" gridSize="10" guides="1" tooltips="1" connect="1" arrows="1" fold="1" page="1" pageScale="1.5" pageWidth="1169" pageHeight="827" background="none" math="0" shadow="0">
      <root>
        <mxCell id="0" />
        <mxCell id="1" parent="0" />
        <mxCell id="2" value="构建1个多层网络" style="rounded=1;fillColor=#10739E;strokeColor=none;shadow=1;gradientColor=none;fontStyle=1;fontColor=#FFFFFF;fontSize=16;" parent="1" vertex="1">
          <mxGeometry x="670" y="180" width="200" height="60" as="geometry" />
        </mxCell>
        <mxCell id="7" value="国家重要性演化" style="rounded=1;fillColor=#10739E;strokeColor=none;shadow=1;gradientColor=none;fontStyle=1;fontColor=#FFFFFF;fontSize=16;" parent="1" vertex="1">
          <mxGeometry x="1260" y="400" width="200" height="60" as="geometry" />
        </mxCell>
        <mxCell id="Hvea3F9k3S3OJW94B0nU-57" value="构建3个单层网络" style="rounded=1;fillColor=#10739E;strokeColor=none;shadow=1;gradientColor=none;fontStyle=1;fontColor=#FFFFFF;fontSize=16;" vertex="1" parent="1">
          <mxGeometry x="670" y="40" width="200" height="60" as="geometry" />
        </mxCell>
        <mxCell id="Hvea3F9k3S3OJW94B0nU-58" value="" style="edgeStyle=elbowEdgeStyle;elbow=vertical;strokeWidth=4;endArrow=block;endFill=1;fontStyle=1;strokeColor=#23445D;entryX=0.5;entryY=0;entryDx=0;entryDy=0;" edge="1" parent="1" target="2">
          <mxGeometry x="19.5" width="100" height="100" as="geometry">
            <mxPoint x="769.5" y="100" as="sourcePoint" />
            <mxPoint x="770" y="130" as="targetPoint" />
          </mxGeometry>
        </mxCell>
        <mxCell id="Hvea3F9k3S3OJW94B0nU-60" value="实证研究" style="rounded=1;fillColor=#10739E;strokeColor=none;shadow=1;gradientColor=none;fontStyle=1;fontColor=#FFFFFF;fontSize=16;" vertex="1" parent="1">
          <mxGeometry x="930" y="250" width="200" height="60" as="geometry" />
        </mxCell>
        <mxCell id="Hvea3F9k3S3OJW94B0nU-61" value="4个网络" style="rounded=1;fillColor=#10739E;strokeColor=none;shadow=1;gradientColor=none;fontStyle=1;fontColor=#FFFFFF;fontSize=16;" vertex="1" parent="1">
          <mxGeometry x="930" y="110" width="200" height="60" as="geometry" />
        </mxCell>
        <mxCell id="Hvea3F9k3S3OJW94B0nU-67" value="" style="edgeStyle=elbowEdgeStyle;elbow=vertical;strokeWidth=4;endArrow=block;endFill=1;fontStyle=1;strokeColor=#23445D;" edge="1" parent="1" target="Hvea3F9k3S3OJW94B0nU-61">
          <mxGeometry x="200" y="-130" width="100" height="100" as="geometry">
            <mxPoint x="870" y="80" as="sourcePoint" />
            <mxPoint x="1080" y="140" as="targetPoint" />
            <Array as="points">
              <mxPoint x="980" y="80" />
              <mxPoint x="1000" y="80" />
              <mxPoint x="1030" y="80" />
              <mxPoint x="970" y="80" />
              <mxPoint x="980" y="70" />
            </Array>
          </mxGeometry>
        </mxCell>
        <mxCell id="Hvea3F9k3S3OJW94B0nU-68" value="" style="edgeStyle=elbowEdgeStyle;elbow=vertical;strokeWidth=4;endArrow=block;endFill=1;fontStyle=1;strokeColor=#23445D;" edge="1" parent="1">
          <mxGeometry x="190" y="-25" width="100" height="100" as="geometry">
            <mxPoint x="870" y="210" as="sourcePoint" />
            <mxPoint x="980" y="170" as="targetPoint" />
            <Array as="points">
              <mxPoint x="910" y="210" />
              <mxPoint x="950" y="270" />
              <mxPoint x="910" y="100" />
              <mxPoint x="980" y="170" />
              <mxPoint x="940" y="200" />
              <mxPoint x="970" y="140" />
              <mxPoint x="930" y="140" />
              <mxPoint x="880" y="140" />
            </Array>
          </mxGeometry>
        </mxCell>
        <mxCell id="Hvea3F9k3S3OJW94B0nU-70" value="" style="edgeStyle=elbowEdgeStyle;elbow=vertical;strokeWidth=4;endArrow=block;endFill=1;fontStyle=1;strokeColor=#23445D;entryX=0.5;entryY=0;entryDx=0;entryDy=0;" edge="1" parent="1">
          <mxGeometry x="279.5" y="70" width="100" height="100" as="geometry">
            <mxPoint x="1029.5" y="170" as="sourcePoint" />
            <mxPoint x="1030" y="250" as="targetPoint" />
          </mxGeometry>
        </mxCell>
        <mxCell id="Hvea3F9k3S3OJW94B0nU-71" value="社区检测和比较" style="rounded=1;fillColor=#10739E;strokeColor=none;shadow=1;gradientColor=none;fontStyle=1;fontColor=#FFFFFF;fontSize=16;" vertex="1" parent="1">
          <mxGeometry x="820" y="400" width="200" height="60" as="geometry" />
        </mxCell>
        <mxCell id="Hvea3F9k3S3OJW94B0nU-72" value="分析度分布" style="rounded=1;fillColor=#10739E;strokeColor=none;shadow=1;gradientColor=none;fontStyle=1;fontColor=#FFFFFF;fontSize=16;" vertex="1" parent="1">
          <mxGeometry x="600" y="400" width="200" height="60" as="geometry" />
        </mxCell>
        <mxCell id="Hvea3F9k3S3OJW94B0nU-74" value="稳定性分析" style="rounded=1;fillColor=#10739E;strokeColor=none;shadow=1;gradientColor=none;fontStyle=1;fontColor=#FFFFFF;fontSize=16;" vertex="1" parent="1">
          <mxGeometry x="1040" y="400" width="200" height="60" as="geometry" />
        </mxCell>
        <mxCell id="Hvea3F9k3S3OJW94B0nU-75" value="" style="edgeStyle=elbowEdgeStyle;elbow=vertical;strokeWidth=4;endArrow=block;endFill=1;fontStyle=1;strokeColor=#23445D;entryX=0.5;entryY=0;entryDx=0;entryDy=0;" edge="1" parent="1" target="Hvea3F9k3S3OJW94B0nU-74">
          <mxGeometry x="280" y="210" width="100" height="100" as="geometry">
            <mxPoint x="1030" y="310" as="sourcePoint" />
            <mxPoint x="1140" y="380" as="targetPoint" />
          </mxGeometry>
        </mxCell>
        <mxCell id="Hvea3F9k3S3OJW94B0nU-76" value="" style="edgeStyle=elbowEdgeStyle;elbow=vertical;strokeWidth=4;endArrow=block;endFill=1;fontStyle=1;strokeColor=#23445D;entryX=0.5;entryY=0;entryDx=0;entryDy=0;" edge="1" parent="1" target="Hvea3F9k3S3OJW94B0nU-71">
          <mxGeometry x="280" y="210" width="100" height="100" as="geometry">
            <mxPoint x="1030" y="310" as="sourcePoint" />
            <mxPoint x="880" y="390" as="targetPoint" />
          </mxGeometry>
        </mxCell>
        <mxCell id="Hvea3F9k3S3OJW94B0nU-77" value="" style="edgeStyle=elbowEdgeStyle;elbow=vertical;strokeWidth=4;endArrow=block;endFill=1;fontStyle=1;strokeColor=#23445D;entryX=0.5;entryY=0;entryDx=0;entryDy=0;" edge="1" parent="1" target="7">
          <mxGeometry x="280" y="210" width="100" height="100" as="geometry">
            <mxPoint x="1030" y="310" as="sourcePoint" />
            <mxPoint x="1180" y="400" as="targetPoint" />
          </mxGeometry>
        </mxCell>
        <mxCell id="Hvea3F9k3S3OJW94B0nU-78" value="" style="edgeStyle=elbowEdgeStyle;elbow=vertical;strokeWidth=4;endArrow=block;endFill=1;fontStyle=1;strokeColor=#23445D;entryX=0.5;entryY=0;entryDx=0;entryDy=0;" edge="1" parent="1" target="Hvea3F9k3S3OJW94B0nU-72">
          <mxGeometry x="280" y="210" width="100" height="100" as="geometry">
            <mxPoint x="1030" y="310" as="sourcePoint" />
            <mxPoint x="740" y="390" as="targetPoint" />
          </mxGeometry>
        </mxCell>
      </root>
    </mxGraphModel>
  </diagram>
</mxfile>
